<?xml version="1.0" encoding="utf-8"?>
<!-- Generator: Adobe Illustrator 16.0.0, SVG Export Plug-In . SVG Version: 6.00 Build 0)  -->
<!DOCTYPE svg PUBLIC "-//W3C//DTD SVG 1.1//EN" "http://www.w3.org/Graphics/SVG/1.1/DTD/svg11.dtd">
<svg version="1.1" id="Layer_1" xmlns="http://www.w3.org/2000/svg" xmlns:xlink="http://www.w3.org/1999/xlink" x="0px" y="0px"
	 width="212.795px" height="220.59px" viewBox="0 0 212.795 220.59" enable-background="new 0 0 212.795 220.59"
	 xml:space="preserve">
<path fill="#80DDFF" d="M168.607,50.838v81.105c0,5.002-4.061,9.062-9.063,9.062H60.089l-33.076,33.684v-33.684H19.99
	c-5.002,0-9.062-4.06-9.062-9.062V50.838c0-5.002,4.06-9.062,9.062-9.062h139.555C164.547,41.776,168.607,45.836,168.607,50.838"/>
<path fill="#10003B" d="M27.012,176.688c-0.254,0-0.511-0.049-0.756-0.148c-0.752-0.308-1.244-1.039-1.244-1.852v-31.683h-5.023
	c-6.1,0-11.062-4.962-11.062-11.062V50.839c0-6.1,4.962-11.063,11.062-11.063h139.556c6.099,0,11.062,4.962,11.062,11.063v81.105
	c0,6.1-4.963,11.062-11.062,11.062H60.927L28.439,176.09C28.056,176.48,27.54,176.688,27.012,176.688 M19.989,43.776
	c-3.894,0-7.062,3.168-7.062,7.063v81.105c0,3.894,3.168,7.062,7.062,7.062h7.023c1.105,0,2,0.895,2,2v28.792l29.65-30.194
	c0.376-0.383,0.89-0.598,1.427-0.598h99.456c3.894,0,7.062-3.168,7.062-7.062V50.839c0-3.894-3.168-7.063-7.062-7.063H19.989z"/>
<path fill="#52C0F5" d="M204.104,62.772v81.105c0,5.002-4.061,9.063-9.063,9.063h-7.023v33.684l-33.076-33.684H76.626
	c-5.002,0-9.061-4.061-9.061-9.063v-2.873h91.979c5.002,0,9.063-4.059,9.063-9.062V53.71h26.433
	C200.042,53.71,204.104,57.771,204.104,62.772"/>
<path fill="#10003B" d="M188.018,188.624c-0.526,0-1.043-0.208-1.427-0.598l-32.488-33.085H76.627
	c-6.1,0-11.062-4.963-11.062-11.063v-2.873c0-1.104,0.896-2,2-2h91.979c3.895,0,7.063-3.168,7.063-7.062V53.711c0-1.104,0.896-2,2-2
	h26.434c6.099,0,11.062,4.962,11.062,11.062v81.105c0,6.1-4.963,11.063-11.062,11.063h-5.024v31.683
	c0,0.813-0.491,1.544-1.243,1.852C188.53,188.575,188.272,188.624,188.018,188.624 M69.565,143.005v0.873
	c0,3.895,3.168,7.063,7.062,7.063h78.314c0.537,0,1.051,0.215,1.427,0.598l29.649,30.194v-28.792c0-1.105,0.896-2,2-2h7.024
	c3.894,0,7.062-3.168,7.062-7.063V62.773c0-3.894-3.168-7.062-7.062-7.062h-24.434v76.232c0,6.1-4.963,11.062-11.063,11.062H69.565z
	"/>
<path fill="#10003B" d="M151.087,66.205H80.102c-1.105,0-2-0.896-2-2c0-1.104,0.895-2,2-2h70.985c1.104,0,2,0.896,2,2
	C153.087,65.31,152.191,66.205,151.087,66.205"/>
<path fill="#10003B" d="M64.092,66.205H28.447c-1.104,0-2-0.896-2-2c0-1.104,0.896-2,2-2h35.645c1.104,0,2,0.896,2,2
	C66.092,65.31,65.196,66.205,64.092,66.205"/>
<path fill="#10003B" d="M151.087,102.453H64.092c-1.104,0-2-0.896-2-2c0-1.104,0.896-2,2-2h86.995c1.104,0,2,0.896,2,2
	C153.087,101.557,152.191,102.453,151.087,102.453"/>
<path fill="#10003B" d="M43.551,102.453H28.447c-1.104,0-2-0.896-2-2c0-1.104,0.896-2,2-2h15.104c1.104,0,2,0.896,2,2
	C45.551,101.557,44.655,102.453,43.551,102.453"/>
<path fill="#10003B" d="M151.087,120.577H99.434c-1.105,0-2-0.896-2-2s0.895-2,2-2h51.653c1.104,0,2,0.896,2,2
	S152.191,120.577,151.087,120.577"/>
<path fill="#10003B" d="M84.935,120.577H28.448c-1.105,0-2-0.896-2-2s0.895-2,2-2h56.487c1.104,0,2,0.896,2,2
	S86.039,120.577,84.935,120.577"/>
<path fill="#10003B" d="M151.087,84.329h-26.582c-1.105,0-2-0.896-2-2c0-1.104,0.895-2,2-2h26.582c1.104,0,2,0.896,2,2
	C153.087,83.433,152.191,84.329,151.087,84.329"/>
<path fill="#10003B" d="M108.193,84.329H28.448c-1.105,0-2-0.896-2-2c0-1.104,0.895-2,2-2h79.746c1.104,0,2,0.896,2,2
	C110.193,83.433,109.297,84.329,108.193,84.329"/>
</svg>
