<svg id="Capa_1" enable-background="new 0 0 512 512" height="212" viewBox="0 0 512 512" width="212" xmlns="http://www.w3.org/2000/svg"><g><path d="m95.352 358.677c-48.394 0-87.626 39.231-87.626 87.626v65.697h248.274l30-90.325-30-62.998z" fill="#1390CB"/><path d="m504.274 446.303c0-48.395-39.231-87.626-87.626-87.626h-160.648v153.323h248.274z" fill="#1390CB"/><path d="m118.29 154.527h-30.604c-22.758 0-41.207 18.449-41.207 41.207s18.449 41.207 41.207 41.207h30.604z" fill="#faa68e"/><path d="m393.572 154.527h30.604c22.758 0 41.207 18.449 41.207 41.207s-18.449 41.207-41.207 41.207h-30.604z" fill="#d47f6c"/><path d="m108.29 72.113v160.895c0 81.54 66.101 147.641 147.641 147.641.023 0 .046-.001.069-.001l30-146.538-30-146.537z" fill="#ffbeaa"/><path d="m256 87.573v293.076c81.508-.037 147.572-66.123 147.572-147.64v-129.99z" fill="#faa68e"/><g><path d="m150.996 0c-23.586 0-42.706 19.12-42.706 42.706v29.406c0 17.068 13.837 30.905 30.905 30.905h116.805l30-51.509-30-51.508z" fill="#464141"/><path d="m256 0v103.018h149.204c17.069 0 30.905-13.837 30.905-30.905v-72.113z" fill="#2d2d2d"/></g><g><g><path d="m185.298 248.205c0 39.01 31.624 70.633 70.633 70.633.023 0 .046-.002.069-.002l10-38.503-10-32.128z" fill="#fff5f5"/><path d="m326.564 248.205h-70.564v70.632c38.978-.038 70.564-31.646 70.564-70.632z" fill="#ebe1dc"/></g><g><path d="m201.915 203.008c-21.052 0-38.179-17.127-38.179-38.179h30c0 4.51 3.669 8.179 8.179 8.179 4.511 0 8.18-3.669 8.18-8.179h30c0 21.052-17.127 38.179-38.18 38.179z" fill="#d47f6c"/></g><g><path d="m310.016 203.008c-21.052 0-38.179-17.127-38.179-38.179h30c0 4.51 3.669 8.179 8.179 8.179s8.179-3.669 8.179-8.179h30c-.001 21.052-17.128 38.179-38.179 38.179z" fill="#b2705b"/></g></g></g></svg>